<mxfile host="app.diagrams.net" modified="2024-01-30T04:38:02.691Z" agent="Mozilla/5.0 (X11; Linux x86_64) AppleWebKit/537.36 (KHTML, like Gecko) Chrome/119.0.0.0 Safari/537.36" version="23.0.2" etag="B8D4M7H7vucjvIiOyX5d" type="github">
  <diagram name="Page-1" id="9_Np7MfJiGbQq68SXhG2">
    <mxGraphModel>
      <root>
        <mxCell id="0" />
        <mxCell id="1" parent="0" />
      </root>
    </mxGraphModel>
  </diagram>
</mxfile>
